<?xml version="1.0" encoding="UTF-8" standalone="no"?>
<!-- Generator: Adobe Illustrator 15.1.0, SVG Export Plug-In . SVG Version: 6.00 Build 0)  -->

<svg
   xmlns:dc="http://purl.org/dc/elements/1.1/"
   xmlns:cc="http://creativecommons.org/ns#"
   xmlns:rdf="http://www.w3.org/1999/02/22-rdf-syntax-ns#"
   xmlns:svg="http://www.w3.org/2000/svg"
   xmlns="http://www.w3.org/2000/svg"
   xmlns:sodipodi="http://sodipodi.sourceforge.net/DTD/sodipodi-0.dtd"
   xmlns:inkscape="http://www.inkscape.org/namespaces/inkscape"
   version="1.1"
   id="Layer_1"
   x="0px"
   y="0px"
   width="792"
   height="170"
   viewBox="0 0 792 170"
   enable-background="new 0 0 792 612"
   xml:space="preserve"
   inkscape:version="0.48.4 r9939"
   sodipodi:docname="cesium_logo.svg"><metadata
   id="metadata3061"><rdf:RDF><cc:Work
       rdf:about=""><dc:format>image/svg+xml</dc:format><dc:type
         rdf:resource="http://purl.org/dc/dcmitype/StillImage" /></cc:Work></rdf:RDF></metadata><defs
   id="defs3059" /><sodipodi:namedview
   pagecolor="#ffffff"
   bordercolor="#666666"
   borderopacity="1"
   objecttolerance="10"
   gridtolerance="10"
   guidetolerance="10"
   inkscape:pageopacity="0"
   inkscape:pageshadow="2"
   inkscape:window-width="1258"
   inkscape:window-height="842"
   id="namedview3057"
   showgrid="false"
   inkscape:zoom="1.0964052"
   inkscape:cx="396"
   inkscape:cy="233.03428"
   inkscape:window-x="0"
   inkscape:window-y="0"
   inkscape:window-maximized="0"
   inkscape:current-layer="g3025" />
<g
   id="g3025"
   transform="translate(-62.932936,-637.18331)">
	<path
   d="m 153.896,242.273 c -3.746,0 -6.762,-3.034 -6.762,-6.772 0,-3.732 3.016,-6.764 6.762,-6.764 3.745,0 6.769,3.032 6.769,6.764 0,3.739 -3.024,6.772 -6.769,6.772 z"
   id="path3027"
   inkscape:connector-curvature="0"
   style="fill:#ffffff" />
	<path
   d="m 67.671,265.997 c 0,-35.719 28.955,-64.671 64.668,-64.671 35.719,0 64.677,28.952 64.677,64.671 0,35.718 -28.958,64.671 -64.677,64.671 -35.714,0 -64.668,-28.953 -64.668,-64.671 z"
   id="path3029"
   inkscape:connector-curvature="0"
   style="fill:#ffffff" />
	<g
   id="g3031"
   transform="translate(1.8241431,456.94783)">
		<g
   id="g3033">
			<g
   id="g3035">
				<path
   d="m 236.768,311.439 c -4.229,-0.876 -7.579,-2.433 -10.055,-4.667 -2.466,-2.238 -4.207,-5.27 -5.22,-9.084 -1.024,-3.831 -1.526,-8.658 -1.526,-14.479 v -8.936 c 0,-6.908 0.521,-12.458 1.571,-16.651 1.048,-4.202 2.842,-7.432 5.379,-9.704 2.547,-2.266 5.957,-3.791 10.26,-4.571 4.3,-0.772 9.732,-1.165 16.299,-1.165 h 15.031 c 6.9,0 12.595,0.319 17.059,0.961 4.474,0.649 7.99,1.851 10.562,3.61 2.572,1.761 4.368,4.193 5.387,7.305 1.011,3.117 1.516,7.149 1.516,12.09 h -17.465 c 0,-1.355 -0.182,-2.558 -0.56,-3.606 -0.369,-1.051 -1.171,-1.929 -2.386,-2.642 -1.216,-0.71 -3.011,-1.233 -5.38,-1.574 -2.371,-0.336 -5.55,-0.504 -9.545,-0.504 h -12.998 c -3.793,0 -6.857,0.149 -9.196,0.458 -2.335,0.302 -4.125,1 -5.379,2.076 -1.253,1.083 -2.083,2.708 -2.484,4.874 -0.409,2.173 -0.615,5.116 -0.615,8.843 v 7.71 c 0,3.458 0.207,6.204 0.615,8.229 0.401,2.033 1.215,3.609 2.437,4.721 1.215,1.12 2.94,1.844 5.175,2.184 2.239,0.34 5.18,0.51 8.834,0.51 h 13.813 c 3.728,0 6.749,-0.103 9.089,-0.308 2.33,-0.202 4.141,-0.641 5.43,-1.32 1.284,-0.672 2.157,-1.626 2.591,-2.842 0.443,-1.223 0.666,-2.814 0.666,-4.776 h 17.462 c 0,4.678 -0.389,8.585 -1.168,11.732 -0.774,3.147 -2.401,5.671 -4.875,7.562 -2.467,1.9 -6.012,3.254 -10.613,4.066 -4.605,0.809 -10.658,1.219 -18.173,1.219 h -15.435 c -6.509,0.003 -11.871,-0.44 -16.103,-1.321 z"
   id="path3037"
   inkscape:connector-curvature="0"
   style="fill:#231f20" />
				<path
   d="m 386.918,242.183 v 14.014 h -55.247 v 13 h 53.514 v 14.116 h -53.514 v 15.228 h 55.247 v 14.118 h -72.107 v -70.476 h 72.107 z"
   id="path3039"
   inkscape:connector-curvature="0"
   style="fill:#231f20" />
				<path
   d="m 455.155,242.183 c 8.873,0 15.44,1.625 19.702,4.871 4.262,3.253 6.4,8.261 6.4,15.037 h -18.179 c 0,-1.083 -0.115,-2 -0.353,-2.748 -0.242,-0.74 -0.676,-1.352 -1.322,-1.825 -0.64,-0.474 -1.522,-0.814 -2.643,-1.013 -1.117,-0.206 -2.557,-0.308 -4.312,-0.308 h -28.337 c -2.366,0 -4.333,0.421 -5.881,1.267 -1.569,0.847 -2.336,2.626 -2.336,5.33 0,1.424 0.196,2.526 0.601,3.305 0.408,0.779 0.966,1.355 1.675,1.725 0.718,0.377 1.578,0.61 2.592,0.716 1.014,0.096 2.129,0.184 3.35,0.25 l 31.182,1.215 c 3.99,0.139 7.495,0.459 10.512,0.969 3.012,0.509 5.519,1.488 7.511,2.946 1.992,1.455 3.511,3.533 4.52,6.244 1.016,2.706 1.528,6.396 1.528,11.069 0,3.796 -0.403,7.018 -1.221,9.697 -0.812,2.673 -2.148,4.891 -4.021,6.653 -1.854,1.763 -4.31,3.043 -7.354,3.857 -3.043,0.817 -6.776,1.219 -11.172,1.219 h -34.935 c -4.469,0 -8.227,-0.401 -11.273,-1.219 -3.044,-0.814 -5.501,-2.046 -7.358,-3.703 -1.867,-1.66 -3.184,-3.738 -3.97,-6.253 -0.772,-2.5 -1.158,-5.447 -1.158,-8.83 h 17.263 c 0,1.758 0.777,3.185 2.331,4.265 1.558,1.084 3.521,1.622 5.892,1.622 h 28.232 c 3.721,0 6.505,-0.467 8.326,-1.42 1.833,-0.949 2.733,-2.84 2.733,-5.685 0,-1.292 -0.158,-2.383 -0.499,-3.304 -0.346,-0.913 -0.924,-1.685 -1.776,-2.335 -0.852,-0.638 -2.032,-1.13 -3.555,-1.468 -1.524,-0.337 -3.501,-0.578 -5.942,-0.716 l -27.016,-1.115 c -4.808,-0.202 -8.853,-0.542 -12.123,-1.014 -3.297,-0.474 -5.982,-1.372 -8.086,-2.691 -2.088,-1.321 -3.599,-3.251 -4.517,-5.788 -0.908,-2.542 -1.372,-6.008 -1.372,-10.411 0,-3.721 0.475,-6.892 1.425,-9.498 0.945,-2.6 2.438,-4.724 4.464,-6.343 2.038,-1.626 4.658,-2.794 7.874,-3.504 3.215,-0.713 7.095,-1.067 11.629,-1.067 h 30.969 z"
   id="path3041"
   inkscape:connector-curvature="0"
   style="fill:#231f20" />
				<path
   d="m 493.2,242.183 h 16.866 v 70.476 H 493.2 v -70.476 z"
   id="path3043"
   inkscape:connector-curvature="0"
   style="fill:#231f20" />
				<path
   d="m 538.734,285.844 c 0,2.441 0.268,4.472 0.812,6.096 0.534,1.627 1.404,2.908 2.588,3.86 1.186,0.951 2.759,1.627 4.725,2.028 1.958,0.408 4.365,0.612 7.203,0.612 h 18.29 c 2.704,0 5.003,-0.205 6.906,-0.612 1.886,-0.401 3.411,-1.097 4.567,-2.078 1.147,-0.982 1.998,-2.288 2.536,-3.912 0.548,-1.625 0.812,-3.657 0.812,-6.091 V 242.08 h 16.966 v 45.393 c 0,4.67 -0.476,8.599 -1.43,11.778 -0.946,3.184 -2.536,5.757 -4.772,7.716 -2.229,1.974 -5.191,3.391 -8.882,4.272 -3.694,0.876 -8.249,1.317 -13.662,1.317 h -24.986 c -5.212,0 -9.609,-0.465 -13.196,-1.369 -3.586,-0.92 -6.537,-2.388 -8.832,-4.424 -2.305,-2.025 -3.97,-4.633 -4.979,-7.816 -1.023,-3.183 -1.523,-7.008 -1.523,-11.474 V 242.08 h 16.857 v 43.764 z"
   id="path3045"
   inkscape:connector-curvature="0"
   style="fill:#231f20" />
				<path
   d="m 642.075,242.183 29.044,51.894 30.06,-51.894 h 25.283 v 70.476 h -16.957 v -51.796 l -29.245,51.796 h -18.276 l -29.153,-51.796 v 51.796 h -16.852 v -70.476 h 26.096 z"
   id="path3047"
   inkscape:connector-curvature="0"
   style="fill:#231f20" />
			</g>
		</g>
		<g
   id="g3049">
			<g
   id="g3051">
				<path
   d="m 191.776,256.286 c -2.136,0 -4.202,1.187 -5.826,3.325 l -20.371,26.955 c -3.374,4.462 -8.166,7.017 -13.147,7.017 -0.005,0 -0.022,0 -0.035,0 -0.018,0 -0.027,0 -0.038,0 -4.986,0 -9.775,-2.555 -13.145,-7.017 l -20.373,-26.955 c -1.619,-2.138 -3.682,-3.325 -5.826,-3.325 -2.133,0 -4.209,1.187 -5.821,3.325 l -20.377,26.955 c -3.352,4.427 -8.096,6.977 -13.029,7.017 10.383,21.898 32.63,37.086 58.48,37.086 35.754,0 64.748,-28.996 64.748,-64.751 0,-2.539 -0.179,-5.021 -0.464,-7.458 -1.422,-1.398 -3.074,-2.174 -4.776,-2.174 z"
   id="path3053"
   inkscape:connector-curvature="0"
   style="fill:#5c8727" />
			</g>
			<path
   d="m 132.269,201.157 c -35.762,0 -64.76,28.989 -64.76,64.76 0,5.688 0.807,11.176 2.189,16.439 1.223,0.941 2.583,1.488 3.975,1.488 2.143,0 4.214,-1.178 5.835,-3.311 l 20.373,-26.956 c 3.364,-4.468 8.161,-7.031 13.134,-7.031 4.976,0 9.765,2.562 13.14,7.031 l 19.598,25.924 0.848,1.031 c 1.614,2.126 3.675,3.296 5.795,3.311 2.114,-0.015 4.174,-1.185 5.789,-3.311 l 0.859,-1.031 19.599,-25.924 c 3.364,-4.468 8.158,-7.031 13.132,-7.031 0.789,0 1.581,0.088 2.358,0.214 -8.165,-26.416 -32.77,-45.603 -61.864,-45.603 z m 21.627,41.116 c -3.746,0 -6.762,-3.034 -6.762,-6.772 0,-3.732 3.016,-6.764 6.762,-6.764 3.745,0 6.769,3.032 6.769,6.764 0,3.739 -3.024,6.772 -6.769,6.772 z"
   id="path3055"
   inkscape:connector-curvature="0"
   style="fill:#6caddf" />
		</g>
	</g>
</g>
</svg>